<svg width="18" height="19" viewBox="0 0 18 19" fill="none" xmlns="http://www.w3.org/2000/svg">
<path d="M12.1834 2.53179C10.459 1.5106 9.59677 1 8.65004 1C7.70331 1 6.84107 1.5106 5.11668 2.53179L4.53341 2.87719C2.80901 3.89839 1.94677 4.40899 1.4734 5.25C1.00004 6.09102 1.00004 7.11222 1.00004 9.15465V9.84536C1.00004 11.8878 1.00004 12.909 1.4734 13.75C1.94677 14.591 2.80901 15.1016 4.53341 16.1228L5.11668 16.4682C6.84107 17.4894 7.70331 18 8.65004 18C9.59677 18 10.459 17.4894 12.1834 16.4682L12.7667 16.1228C14.4911 15.1016 15.3533 14.591 15.8267 13.75C16.3 12.909 16.3 11.8878 16.3 9.84536V9.15465C16.3 7.11222 16.3 6.09102 15.8267 5.25C15.3533 4.40899 14.4911 3.89839 12.7667 2.87719L12.1834 2.53179Z" stroke="white" stroke-width="2"/>
<path d="M8.65019 12.05C7.24187 12.05 6.10019 10.9083 6.10019 9.50001C6.10019 8.09169 7.24187 6.95001 8.65019 6.95001C10.0585 6.95001 11.2002 8.09169 11.2002 9.50001C11.2002 10.9083 10.0585 12.05 8.65019 12.05Z" stroke="white" stroke-width="2"/>
</svg>
