<svg width="22" height="15" viewBox="0 0 22 15" fill="none" xmlns="http://www.w3.org/2000/svg">
<path fill-rule="evenodd" clip-rule="evenodd" d="M14.0736 1.7592C12.6163 1.7592 11.4348 2.94063 11.4348 4.398C11.4348 5.85541 12.6163 7.0368 14.0736 7.0368C15.531 7.0368 16.7124 5.85541 16.7124 4.398C16.7124 2.94063 15.531 1.7592 14.0736 1.7592ZM9.6756 4.398C9.6756 1.96905 11.6447 0 14.0736 0C16.5025 0 18.4716 1.96905 18.4716 4.398C18.4716 5.55845 18.0221 6.61397 17.2878 7.3999C18.9071 7.92731 20.1583 8.9713 20.9577 10.1443C21.2313 10.5458 21.1275 11.093 20.7261 11.3665C20.3247 11.6401 19.7774 11.5364 19.5039 11.1349C18.6457 9.87553 17.0799 8.796 14.9532 8.796C11.5808 8.796 9.6756 11.5001 9.6756 13.194C9.6756 13.6798 9.2818 14.0736 8.796 14.0736C8.31022 14.0736 7.91641 13.6798 7.91641 13.194C7.91641 12.5853 8.0558 11.9362 8.32174 11.2963C8.25398 11.2528 8.1911 11.1993 8.13532 11.1359C7.4133 10.3144 6.29281 9.6756 4.83781 9.6756C3.38281 9.6756 2.26232 10.3144 1.5403 11.1359C1.21961 11.5008 0.663827 11.5366 0.298936 11.2159C-0.0659532 10.8952 -0.101778 10.3394 0.21892 9.97449C0.711627 9.41392 1.33509 8.91598 2.07344 8.55033C1.33689 7.83152 0.879608 6.82789 0.879608 5.7174C0.879608 3.53135 2.65176 1.7592 4.83781 1.7592C7.02386 1.7592 8.796 3.53135 8.796 5.7174C8.796 6.82789 8.33872 7.83152 7.60219 8.55033C8.23761 8.86505 8.78795 9.27767 9.2431 9.74394C9.8093 9.02988 10.5452 8.3898 11.4279 7.91156C10.3636 7.10884 9.6756 5.83377 9.6756 4.398ZM2.63881 5.7174C2.63881 4.50293 3.62334 3.5184 4.83781 3.5184C6.05228 3.5184 7.03681 4.50293 7.03681 5.7174C7.03681 6.93186 6.05228 7.9164 4.83781 7.9164C3.62334 7.9164 2.63881 6.93186 2.63881 5.7174Z" fill="white"/>
</svg>
