<svg width="23" height="24" viewBox="0 0 23 24" fill="none" xmlns="http://www.w3.org/2000/svg">
<path fill-rule="evenodd" clip-rule="evenodd" d="M7.4209 9.72085H3.2992C2.69442 9.71588 2.11241 9.95135 1.68123 10.3754C1.25003 10.7995 1.00498 11.3775 1 11.9823V20.541C1.01119 21.7999 2.04037 22.8116 3.2992 22.801H7.4209C8.02564 22.8061 8.60771 22.5706 9.03892 22.1466C9.47012 21.7225 9.71516 21.1445 9.7201 20.5396V11.9823C9.71516 11.3775 9.47012 10.7995 9.03892 10.3754C8.60771 9.95135 8.02564 9.71588 7.4209 9.72085Z" stroke="white" stroke-width="2" stroke-linecap="round" stroke-linejoin="round"/>
<path fill-rule="evenodd" clip-rule="evenodd" d="M7.4209 1.00088H3.2992C2.06568 0.966673 1.03719 1.93731 1 3.17074V4.64443C1.03719 5.87788 2.06568 6.84851 3.2992 6.81429H7.4209C8.65436 6.84851 9.6829 5.87788 9.7201 4.64443V3.17074C9.6829 1.93731 8.65436 0.966673 7.4209 1.00088Z" stroke="white" stroke-width="2" stroke-linecap="round" stroke-linejoin="round"/>
<path fill-rule="evenodd" clip-rule="evenodd" d="M14.9262 14.0812H19.0464C19.6514 14.0866 20.2338 13.8513 20.6653 13.4272C21.0968 13.003 21.3421 12.4248 21.3471 11.8198V3.26242C21.3421 2.65765 21.0971 2.07962 20.6659 1.65552C20.2347 1.23142 19.6526 0.995973 19.0479 1.001H14.9262C14.3214 0.995973 13.7393 1.23142 13.3081 1.65552C12.8769 2.07962 12.6319 2.65765 12.627 3.26242V11.8198C12.6319 12.4245 12.8769 13.0025 13.3081 13.4266C13.7393 13.8507 14.3214 14.0862 14.9262 14.0812Z" stroke="white" stroke-width="2" stroke-linecap="round" stroke-linejoin="round"/>
<path fill-rule="evenodd" clip-rule="evenodd" d="M14.9262 22.8012H19.0464C20.2804 22.8362 21.3098 21.8653 21.3471 20.6313V19.1576C21.3098 17.9242 20.2813 16.9536 19.0479 16.9878H14.9262C13.6927 16.9536 12.6642 17.9242 12.627 19.1576V20.6299C12.6633 21.8639 13.6921 22.8353 14.9262 22.8012Z" stroke="white" stroke-width="2" stroke-linecap="round" stroke-linejoin="round"/>
</svg>
