<svg width="24" height="24" viewBox="0 0 24 24" fill="none" xmlns="http://www.w3.org/2000/svg">
<path opacity="0.5" d="M1 11.8148C1 9.38939 1 8.17667 1.55028 7.17134C2.10057 6.16603 3.10591 5.54208 5.11656 4.29421L7.2363 2.97864C9.36172 1.65955 10.4245 1 11.5987 1C12.7729 1 13.8357 1.65955 15.9611 2.97864L18.0809 4.2942C20.0915 5.54208 21.0968 6.16603 21.6471 7.17134C22.1974 8.17667 22.1974 9.38939 22.1974 11.8148V13.427C22.1974 17.5613 22.1974 19.6286 20.9556 20.9129C19.714 22.1974 17.7154 22.1974 13.7184 22.1974H9.47896C5.48193 22.1974 3.48343 22.1974 2.24171 20.9129C1 19.6286 1 17.5613 1 13.427V11.8148Z" stroke="white" stroke-width="2"/>
<path d="M11.5986 14.7783V17.9579" stroke="white" stroke-width="2" stroke-linecap="round"/>
</svg>
