<svg width="17" height="17" viewBox="0 0 17 17" fill="none" xmlns="http://www.w3.org/2000/svg">
<g opacity="0.5">
<path fill-rule="evenodd" clip-rule="evenodd" d="M0 8.50003C0 3.80559 3.80559 0 8.50003 0C13.1945 0 17.0001 3.80559 17.0001 8.50003C17.0001 13.1945 13.1945 17.0001 8.50003 17.0001C3.80559 17.0001 0 13.1945 0 8.50003ZM8.50003 1.18605C4.46063 1.18605 1.18605 4.46063 1.18605 8.50003C1.18605 12.5394 4.46063 15.814 8.50003 15.814C12.5394 15.814 15.814 12.5394 15.814 8.50003C15.814 4.46063 12.5394 1.18605 8.50003 1.18605Z" fill="white" fill-opacity="0.4"/>
<path fill-rule="evenodd" clip-rule="evenodd" d="M8.72587 5.93025C7.14265 5.93025 5.93019 7.11868 5.93019 8.50003C5.93019 9.88138 7.14265 11.0698 8.72587 11.0698C9.13047 11.0698 9.51286 10.9911 9.85744 10.8505C10.1607 10.7269 10.5068 10.8724 10.6305 11.1758C10.7542 11.479 10.6085 11.8251 10.3053 11.9487C9.81965 12.1468 9.28521 12.2559 8.72587 12.2559C6.56603 12.2559 4.74414 10.6121 4.74414 8.50003C4.74414 6.38787 6.56603 4.7442 8.72587 4.7442C9.28521 4.7442 9.81965 4.85325 10.3053 5.05128C10.6085 5.17495 10.7542 5.52106 10.6305 5.82433C10.5068 6.1276 10.1607 6.2732 9.85744 6.14952C9.51286 6.00901 9.13047 5.93025 8.72587 5.93025Z" fill="white" fill-opacity="0.4"/>
</g>
</svg>
