<svg width="14" height="14" viewBox="0 0 14 14" fill="none" xmlns="http://www.w3.org/2000/svg">
<path d="M5.37258 7.80457L12.4825 0.697291M5.57469 8.1242L7.18686 11.3486C7.57648 12.1278 7.77126 12.5174 8.01666 12.6219C8.22965 12.7125 8.4731 12.6961 8.67201 12.5777C8.90117 12.4412 9.0419 12.029 9.32344 11.2045L12.3695 2.28373C12.6149 1.56538 12.7375 1.2062 12.6535 0.968598C12.5805 0.761897 12.4179 0.599301 12.2113 0.526273C11.9736 0.442327 11.6145 0.564974 10.8961 0.81026L1.97525 3.85641C1.15082 4.13792 0.738596 4.27868 0.602137 4.50785C0.483712 4.70672 0.467303 4.95017 0.557966 5.1631C0.662441 5.40851 1.05204 5.60336 1.83124 5.99291L5.05563 7.60516C5.18405 7.66936 5.24825 7.70142 5.30381 7.74429C5.35321 7.78238 5.39747 7.82663 5.43548 7.87596C5.47842 7.9316 5.51049 7.9958 5.57469 8.1242Z" stroke="black" stroke-linecap="round" stroke-linejoin="round"/>
</svg>
