<svg width="12" height="12" viewBox="0 0 12 12" fill="none" xmlns="http://www.w3.org/2000/svg">
<path fill-rule="evenodd" clip-rule="evenodd" d="M11.1888 4.29614L5.19101 10.2274C4.1972 11.2102 2.58579 11.2102 1.59199 10.2274C0.598177 9.24496 0.598177 7.65167 1.59199 6.66882L6.99031 1.33031C7.65257 0.675214 8.72683 0.675214 9.38951 1.33031C10.0518 1.98541 10.0518 3.04788 9.38951 3.70256L3.99119 9.04106C3.66006 9.36882 3.12292 9.36882 2.79137 9.04106C2.46024 8.71372 2.46024 8.18249 2.79137 7.85473L7.59021 3.10981L6.99031 2.51664L2.19188 7.26198C1.52921 7.91665 1.52921 8.97913 2.19188 9.63465C2.85414 10.2893 3.92842 10.2893 4.5911 9.63423L9.989 4.29614C10.9828 3.31371 10.9832 1.71957 9.98942 0.737141C8.9952 -0.245714 7.38421 -0.245714 6.3904 0.737141L0.692116 6.37181L0.713188 6.39245C-0.322327 7.70854 -0.230914 9.61106 0.992072 10.8206C2.21548 12.0301 4.13906 12.1206 5.4699 11.0965L5.49054 11.1171L11.7887 4.88931L11.1888 4.29614Z" fill="white"/>
</svg>
