<svg width="13" height="13" viewBox="0 0 13 13" fill="none" xmlns="http://www.w3.org/2000/svg">
<path d="M8.81914 8.33259L9.11938 8.03406L8.4222 7.33292L8.12202 7.63145L8.81914 8.33259ZM10.1276 7.90902L11.3869 8.59361L11.8591 7.72499L10.5998 7.04039L10.1276 7.90902ZM11.6294 9.95423L10.693 10.8853L11.3901 11.5864L12.3265 10.6554L11.6294 9.95423ZM10.1224 11.1851C9.16671 11.2741 6.6941 11.1948 4.01702 8.53284L3.31987 9.23398C6.24127 12.1388 9.02176 12.2806 10.2142 12.1695L10.1224 11.1851ZM4.01702 8.53284C1.46519 5.99551 1.04249 3.86141 0.989866 2.93556L0.00273465 2.99166C0.0689529 4.15693 0.592365 6.52197 3.31987 9.23398L4.01702 8.53284ZM4.92356 4.4591L5.1126 4.27111L4.41549 3.57L4.22643 3.75797L4.92356 4.4591ZM5.26309 1.87496L4.43193 0.764689L3.64043 1.35723L4.47158 2.46751L5.26309 1.87496ZM1.63646 0.523032L0.601857 1.55176L1.299 2.25289L2.3336 1.22416L1.63646 0.523032ZM4.575 4.10854C4.22643 3.75797 4.22596 3.75844 4.22549 3.75891C4.22533 3.75907 4.22485 3.75955 4.22453 3.75988C4.22388 3.76053 4.22322 3.76119 4.22256 3.76187C4.22122 3.76323 4.21984 3.76465 4.21841 3.76613C4.21556 3.76909 4.21254 3.77229 4.20936 3.77574C4.203 3.78264 4.19602 3.79054 4.18855 3.79946C4.1736 3.81729 4.15667 3.83925 4.13887 3.86551C4.10319 3.91817 4.06432 3.9878 4.03133 4.07536C3.96401 4.25402 3.92792 4.48954 3.97316 4.78119C4.06165 5.35153 4.45444 6.10492 5.46063 7.10538L6.15775 6.40424C5.21616 5.46798 4.99185 4.89821 4.95019 4.62961C4.93035 4.50178 4.95091 4.43886 4.95658 4.42396C4.96001 4.41475 4.96166 4.41381 4.95744 4.4201C4.95533 4.42318 4.95184 4.428 4.94637 4.43449C4.94366 4.43774 4.94043 4.44142 4.93668 4.44552C4.93476 4.44757 4.93279 4.44972 4.93055 4.45199C4.92949 4.45312 4.92837 4.45427 4.92718 4.45546C4.92659 4.45605 4.926 4.45665 4.9254 4.45726C4.92514 4.45756 4.92468 4.45802 4.92448 4.45817C4.92402 4.45864 4.92356 4.4591 4.575 4.10854ZM5.46063 7.10538C6.46716 8.10617 7.22406 8.49566 7.79535 8.58333C8.08729 8.62809 8.32267 8.59236 8.50123 8.52585C8.58877 8.49323 8.6585 8.4548 8.71124 8.41947C8.7376 8.4018 8.75962 8.38499 8.77748 8.37016C8.78645 8.36278 8.79436 8.35586 8.80128 8.34953C8.80477 8.34637 8.808 8.3434 8.81097 8.34057C8.81248 8.33912 8.81387 8.33773 8.81525 8.33641C8.81591 8.33575 8.81657 8.33509 8.81723 8.33444C8.81756 8.33411 8.81808 8.33364 8.81822 8.33351C8.81868 8.33305 8.81914 8.33259 8.47058 7.98199C8.12202 7.63145 8.12248 7.63099 8.12294 7.63053C8.12308 7.6304 8.12354 7.62994 8.12387 7.62961C8.12446 7.62901 8.12505 7.62842 8.12565 7.62783C8.1269 7.62671 8.12802 7.62559 8.12914 7.62446C8.13145 7.62229 8.13362 7.62031 8.13567 7.6184C8.13975 7.61471 8.14344 7.61148 8.14674 7.60884C8.1532 7.60344 8.15801 7.60001 8.16098 7.59797C8.16711 7.59388 8.16586 7.59573 8.1561 7.59935C8.13995 7.60535 8.07529 7.62598 7.9453 7.60601C7.67288 7.56428 7.09909 7.34017 6.15775 6.40424L5.46063 7.10538ZM4.43193 0.764689C3.76005 -0.132804 2.43886 -0.274818 1.63646 0.523032L2.3336 1.22416C2.68406 0.875684 3.30648 0.911153 3.64043 1.35723L4.43193 0.764689ZM0.989866 2.93556C0.9769 2.70742 1.08153 2.46911 1.299 2.25289L0.601857 1.55176C0.247682 1.90393 -0.0307568 2.40244 0.00273465 2.99166L0.989866 2.93556ZM10.693 10.8853C10.5118 11.0654 10.3177 11.1669 10.1224 11.1851L10.2142 12.1695C10.6984 12.1244 11.0951 11.8797 11.3901 11.5864L10.693 10.8853ZM5.1126 4.27111C5.76154 3.62586 5.80979 2.60523 5.26309 1.87496L4.47158 2.46751C4.73755 2.82278 4.698 3.28909 4.41549 3.57L5.1126 4.27111ZM11.3869 8.59361C11.926 8.88667 12.01 9.57575 11.6294 9.95423L12.3265 10.6554C13.2099 9.77692 12.9375 8.31117 11.8591 7.72499L11.3869 8.59361ZM9.11938 8.03406C9.3725 7.7824 9.77992 7.72004 10.1276 7.90902L10.5998 7.04039C9.88558 6.65209 8.99915 6.75933 8.4222 7.33292L9.11938 8.03406Z" fill="white"/>
</svg>
