<svg width="13" height="11" viewBox="0 0 13 11" fill="none" xmlns="http://www.w3.org/2000/svg">
<path d="M12.0982 2.55804L9.83355 3.8162C8.57095 4.51764 7.93966 4.86839 7.27109 5.0059C6.67935 5.12757 6.06904 5.12757 5.4773 5.0059C4.80876 4.86839 4.17745 4.51764 2.91483 3.8162L0.650146 2.55804M2.68536 9.5541H10.063C10.7754 9.5541 11.1316 9.5541 11.4037 9.41545C11.6431 9.29353 11.8377 9.09891 11.9596 8.85958C12.0982 8.5875 12.0982 8.23127 12.0982 7.51888V2.68524C12.0982 1.97285 12.0982 1.61665 11.9596 1.34455C11.8377 1.10521 11.6431 0.910615 11.4037 0.788667C11.1316 0.650024 10.7754 0.650024 10.063 0.650024H2.68536C1.97297 0.650024 1.61677 0.650024 1.34468 0.788667C1.10533 0.910615 0.910737 1.10521 0.788789 1.34455C0.650146 1.61665 0.650146 1.97285 0.650146 2.68524V7.51888C0.650146 8.23127 0.650146 8.5875 0.788789 8.85958C0.910737 9.09891 1.10533 9.29353 1.34468 9.41545C1.61677 9.5541 1.97297 9.5541 2.68536 9.5541Z" stroke="white" stroke-width="1.30011" stroke-linecap="round" stroke-linejoin="round"/>
</svg>
