<svg width="19" height="19" viewBox="0 0 19 19" fill="none" xmlns="http://www.w3.org/2000/svg">
<path d="M1 9.24284C1 7.39423 1 6.46992 1.41942 5.70368C1.83883 4.93745 2.60508 4.46189 4.13757 3.51079L5.75319 2.50808C7.37315 1.50269 8.18315 1 9.07813 1C9.9731 1 10.7831 1.50269 12.4031 2.50808L14.0187 3.51078C15.5512 4.46189 16.3174 4.93745 16.7368 5.70368C17.1563 6.46992 17.1563 7.39423 17.1563 9.24284V10.4716C17.1563 13.6227 17.1562 15.1984 16.2098 16.1773C15.2635 17.1562 13.7402 17.1563 10.6938 17.1563H7.4625C4.41605 17.1563 2.89283 17.1562 1.94641 16.1773C1 15.1984 1 13.6227 1 10.4716V9.24284Z" stroke="#CB85E1" stroke-width="2"/>
<path d="M6.65479 12.3094C7.34173 12.8185 8.17719 13.1172 9.07822 13.1172C9.97926 13.1172 10.8147 12.8185 11.5017 12.3094" stroke="#CB85E1" stroke-width="2" stroke-linecap="round"/>
</svg>
