<svg width="20" height="20" viewBox="0 0 20 20" fill="none" xmlns="http://www.w3.org/2000/svg">
<path fill-rule="evenodd" clip-rule="evenodd" d="M9.55225 4.77612C6.91446 4.77612 4.77612 6.91446 4.77612 9.55225C4.77612 12.19 6.91446 14.3284 9.55225 14.3284C12.19 14.3284 14.3284 12.19 14.3284 9.55225C14.3284 6.91446 12.19 4.77612 9.55225 4.77612ZM7.16418 9.55225C7.16418 8.23336 8.23336 7.16418 9.55225 7.16418C10.8711 7.16418 11.9403 8.23336 11.9403 9.55225C11.9403 10.8711 10.8711 11.9403 9.55225 11.9403C8.23336 11.9403 7.16418 10.8711 7.16418 9.55225Z" fill="#F59E0B"/>
<path fill-rule="evenodd" clip-rule="evenodd" d="M9.55225 0C4.27668 0 0 4.27668 0 9.55225C0 14.8278 4.27668 19.1045 9.55225 19.1045C14.8278 19.1045 19.1045 14.8278 19.1045 9.55225C19.1045 4.27668 14.8278 0 9.55225 0ZM2.38806 9.55225C2.38806 5.59557 5.59557 2.38806 9.55225 2.38806C13.5089 2.38806 16.7164 5.59557 16.7164 9.55225C16.7164 13.5089 13.5089 16.7164 9.55225 16.7164C5.59557 16.7164 2.38806 13.5089 2.38806 9.55225Z" fill="#F59E0B"/>
</svg>
